<?xml version="1.0" standalone="no"?>
<!DOCTYPE svg PUBLIC "-//W3C//DTD SVG 20010904//EN"
 "http://www.w3.org/TR/2001/REC-SVG-20010904/DTD/svg10.dtd">
<svg version="1.0" xmlns="http://www.w3.org/2000/svg"
 width="720.000000pt" height="668.000000pt" viewBox="0 0 720.000000 668.000000"
 preserveAspectRatio="xMidYMid meet">
<metadata>
Created by potrace 1.16, written by Peter Selinger 2001-2019
</metadata>
<g transform="translate(0.000000,668.000000) scale(0.100000,-0.100000)"
fill="#000000" stroke="none">
<path d="M3406 5309 c-1132 -119 -1905 -1174 -1676 -2287 66 -316 216 -616
432 -862 732 -831 2007 -869 2785 -82 306 309 489 696 538 1136 19 167 19 239
-1 405 -69 598 -389 1102 -899 1418 -343 214 -780 314 -1179 272z m407 -44
c635 -74 1188 -471 1462 -1049 238 -500 244 -1069 16 -1571 -98 -218 -208
-375 -390 -555 -279 -277 -586 -436 -996 -517 -142 -28 -491 -25 -650 6 -485
93 -897 359 -1192 769 -83 115 -203 359 -247 501 -68 216 -81 307 -81 566 0
201 3 244 24 345 58 286 182 566 348 783 76 100 250 272 353 351 389 298 865
428 1353 371z"/>
<path d="M3450 5028 c0 -7 22 -76 49 -153 48 -135 50 -140 76 -138 15 1 29 4
31 6 6 6 84 270 84 285 0 19 -38 14 -44 -5 -3 -10 -17 -63 -32 -118 -14 -55
-29 -106 -33 -112 -4 -7 -26 46 -50 117 -35 107 -46 130 -62 130 -10 0 -19 -6
-19 -12z"/>
<path d="M3830 5006 c0 -9 7 -16 15 -16 20 0 19 -41 -3 -150 -15 -74 -21 -85
-40 -88 -38 -6 -25 -30 21 -37 23 -3 50 -9 60 -11 12 -4 17 0 17 15 0 12 -7
21 -15 21 -18 0 -18 0 4 125 15 89 20 100 39 103 21 3 30 26 15 35 -5 3 -32 8
-60 12 -45 6 -53 4 -53 -9z"/>
<path d="M3198 4992 c-32 -9 -58 -21 -58 -28 0 -14 61 -277 66 -283 7 -8 157
35 161 47 10 26 -8 25 -109 -4 -13 -4 -19 4 -27 33 -18 64 -15 70 32 77 54 8
76 21 61 36 -8 8 -24 8 -59 0 -26 -6 -50 -8 -54 -5 -10 11 -29 85 -22 89 3 2
32 9 64 16 36 7 57 16 54 23 -5 18 -45 17 -109 -1z"/>
<path d="M4127 4946 c-3 -6 -25 -60 -50 -121 -67 -165 -67 -150 -2 -174 101
-38 152 -21 191 62 44 96 41 157 -11 191 -43 28 -123 55 -128 42z m109 -77
c25 -27 21 -76 -10 -137 -18 -36 -34 -54 -51 -58 -27 -7 -92 2 -99 14 -3 6 22
77 69 188 13 31 15 33 43 23 17 -6 38 -19 48 -30z"/>
<path d="M2704 4781 c-53 -24 -74 -55 -74 -107 0 -59 69 -163 122 -183 35 -12
41 -12 85 10 64 32 90 76 75 127 -6 20 -25 58 -41 84 -50 78 -101 100 -167 69z
m101 -56 c18 -19 43 -55 56 -81 20 -43 21 -50 8 -73 -20 -36 -59 -56 -93 -47
-18 4 -39 26 -66 68 -44 67 -51 115 -22 140 42 38 78 36 117 -7z"/>
<path d="M4413 4668 c-43 -61 -81 -117 -85 -124 -5 -7 18 -28 62 -58 38 -25
72 -46 74 -46 2 0 6 6 9 14 4 10 -11 26 -44 46 -27 18 -49 35 -49 39 0 9 50
81 56 81 3 0 25 -14 50 -31 40 -27 64 -31 64 -10 0 4 -20 21 -45 39 -25 17
-45 35 -45 40 0 4 12 22 28 40 l27 33 53 -36 c44 -30 53 -33 58 -20 4 9 5 17
3 19 -37 28 -124 86 -130 86 -4 0 -43 -50 -86 -112z"/>
<path d="M2462 4598 c-7 -7 -12 -17 -12 -22 0 -6 29 -60 65 -121 35 -60 62
-111 61 -113 -2 -2 -59 24 -126 58 -96 48 -125 59 -131 48 -5 -7 -8 -17 -6
-21 1 -5 64 -38 140 -75 l138 -66 21 21 21 22 -80 140 c-61 108 -82 138 -91
129z"/>
<path d="M4670 4464 c-58 -52 -106 -101 -108 -109 -8 -34 23 -18 107 56 50 44
91 77 91 73 0 -4 -20 -60 -45 -125 -25 -65 -45 -122 -45 -126 0 -4 7 -16 15
-27 13 -18 21 -13 130 84 92 82 113 105 104 116 -14 16 -21 12 -128 -85 -39
-34 -71 -61 -71 -58 0 3 21 60 46 127 41 108 45 125 33 146 -7 13 -15 24 -18
24 -3 -1 -53 -44 -111 -96z"/>
<path d="M3475 4358 c-229 -25 -439 -128 -605 -297 -146 -147 -224 -289 -277
-501 -26 -107 -25 -335 1 -445 81 -333 308 -596 627 -726 246 -100 560 -89
814 29 44 20 123 69 175 108 291 216 442 565 401 929 -53 480 -429 853 -913
905 -108 11 -110 11 -223 -2z m255 -23 c251 -23 536 -198 687 -420 395 -584
102 -1368 -579 -1546 -117 -31 -307 -37 -418 -15 -399 81 -694 356 -797 742
-22 85 -26 120 -26 244 -1 128 2 157 26 244 98 358 345 616 690 720 88 27 238
46 312 40 22 -2 69 -6 105 -9z"/>
<path d="M3948 3900 c-22 -23 -39 -30 -68 -30 -57 0 -64 -16 -70 -148 l-5
-115 -43 -3 c-33 -2 -47 2 -60 17 -9 10 -24 19 -33 19 -35 0 -60 70 -40 109
23 43 -28 85 -74 61 -35 -19 -77 -1 -98 43 -14 30 -23 37 -45 37 -32 0 -52
-16 -52 -43 0 -28 -64 -52 -101 -36 -24 9 -33 9 -54 -5 -27 -18 -31 -33 -14
-69 14 -32 -12 -97 -38 -97 -26 0 -43 -19 -43 -50 0 -30 17 -50 42 -50 27 0
56 -65 40 -90 -18 -29 -15 -44 13 -70 24 -23 27 -23 53 -8 25 15 30 15 62 0
20 -10 36 -27 40 -41 8 -34 33 -47 67 -35 20 6 29 17 31 36 2 20 12 30 39 41
32 13 40 12 64 -2 28 -15 29 -15 56 12 27 26 27 29 12 55 -13 24 -13 31 -1 65
11 28 21 37 38 37 13 0 28 9 34 20 8 16 21 20 60 20 l50 0 0 -118 c0 -78 4
-122 12 -130 7 -7 30 -12 52 -12 32 0 44 -6 66 -32 20 -24 34 -31 60 -30 71 2
100 82 46 129 -36 31 -62 29 -96 -7 -21 -22 -39 -31 -67 -33 l-38 -2 0 115 0
115 34 3 c27 3 39 -2 62 -27 52 -58 133 -32 131 41 -1 37 -40 78 -74 78 -11 0
-36 -16 -54 -36 -28 -29 -40 -35 -66 -32 l-33 3 0 115 0 115 34 3 c27 3 39 -2
62 -27 33 -37 86 -42 113 -12 32 35 21 101 -19 119 -39 18 -54 15 -87 -18z
m-516 -66 c2 -15 10 -30 18 -34 8 -4 30 -14 49 -24 31 -15 36 -15 58 -1 18 12
28 14 38 5 11 -9 11 -16 -2 -38 -13 -25 -13 -31 6 -74 17 -36 28 -48 51 -53
33 -7 40 -32 13 -41 -36 -11 -45 -20 -65 -67 -20 -46 -20 -48 -3 -68 17 -18
18 -21 2 -36 -15 -16 -18 -15 -36 1 -19 18 -22 18 -67 0 -35 -14 -50 -27 -60
-51 -8 -18 -18 -33 -22 -33 -14 0 -32 24 -32 42 0 10 -8 21 -17 24 -10 3 -32
13 -50 22 -28 14 -33 14 -56 -1 -21 -14 -27 -14 -37 -2 -9 10 -8 19 4 37 14
21 13 27 -7 71 -17 37 -29 50 -49 54 -39 8 -37 39 3 48 17 4 33 14 35 23 3 10
12 32 20 51 13 30 13 35 -1 51 -8 9 -15 21 -15 27 0 19 32 24 50 8 15 -13 22
-13 68 7 40 17 53 28 57 50 9 38 42 39 47 2z"/>
<path d="M3353 3706 c-86 -39 -94 -179 -11 -222 35 -18 119 -15 126 4 3 11 -6
12 -42 7 -43 -7 -48 -5 -81 28 -39 39 -44 70 -20 118 27 51 93 64 139 28 37
-29 49 -63 37 -104 -10 -38 -4 -50 16 -34 7 7 13 32 13 60 0 42 -5 55 -32 84
-39 41 -95 53 -145 31z"/>
<path d="M3650 3183 l-105 -56 -72 12 c-56 9 -86 9 -133 0 -64 -12 -81 -38
-19 -29 54 8 161 3 192 -9 16 -6 84 -11 152 -11 128 0 144 -6 129 -45 -6 -16
-7 -16 -194 -40 -69 -9 -127 -18 -129 -20 -21 -21 175 -52 257 -40 101 14 152
35 325 129 56 30 72 34 83 25 32 -27 11 -53 -83 -104 -51 -27 -93 -53 -93 -57
0 -18 40 -5 120 40 96 54 116 82 86 126 -11 17 -26 26 -42 26 -16 0 -34 10
-46 25 -21 27 -56 32 -91 14 -16 -9 -22 -9 -25 0 -13 38 -53 49 -103 27 -11
-5 -19 1 -27 19 -18 40 -62 33 -182 -32z m405 -65 c-3 -8 -51 -39 -105 -67
-96 -50 -203 -81 -281 -81 -57 0 -19 17 52 24 63 7 75 11 103 41 17 18 71 54
121 79 74 38 91 44 102 33 8 -7 11 -20 8 -29z"/>
<path d="M3185 3075 c-32 -19 -54 -24 -107 -25 l-68 0 0 -130 0 -130 108 0
c59 0 170 -7 247 -15 184 -20 247 -19 322 4 61 18 227 103 238 121 15 24 -21
14 -117 -36 -160 -81 -191 -87 -370 -69 -81 8 -204 18 -273 21 l-125 7 0 99 0
98 53 0 c42 0 63 6 100 30 26 16 47 34 47 40 0 15 -11 12 -55 -15z"/>
<path d="M2200 4257 c-37 -19 -70 -74 -70 -118 0 -52 42 -98 122 -134 59 -26
64 -27 102 -14 80 28 110 140 54 195 -30 30 -134 84 -162 84 -11 0 -32 -6 -46
-13z m105 -53 c71 -38 95 -62 95 -99 0 -76 -56 -100 -137 -58 -102 51 -126
108 -67 161 32 28 48 28 109 -4z"/>
<path d="M5021 4230 c-11 -6 -6 -21 19 -69 18 -34 31 -63 29 -64 -2 -2 -65 2
-139 8 -137 12 -160 11 -160 -7 0 -5 20 -48 46 -93 32 -59 49 -82 60 -78 19 7
19 5 -22 79 -20 36 -35 66 -33 68 4 3 170 -10 242 -19 61 -7 67 6 32 74 -45
91 -60 110 -74 101z"/>
<path d="M2012 3893 c2 -12 33 -25 112 -46 64 -18 103 -33 95 -37 -8 -4 -61
-18 -119 -30 -125 -26 -142 -34 -138 -63 2 -17 16 -24 68 -38 36 -9 99 -26
140 -37 76 -21 90 -21 90 2 0 9 -38 24 -102 41 -57 15 -109 31 -116 35 -7 3
45 19 115 35 120 26 153 41 153 70 0 11 -249 85 -285 85 -10 0 -15 -6 -13 -17z"/>
<path d="M4892 3844 c2 -15 13 -20 50 -22 l48 -3 15 -51 c8 -29 15 -54 15 -57
0 -4 -17 -17 -39 -30 -28 -17 -37 -29 -33 -43 2 -10 8 -18 12 -18 4 0 63 38
131 84 120 81 141 103 121 133 -5 9 -59 15 -166 19 -152 7 -158 6 -154 -12z"/>
</g>
</svg>
