<svg xmlns="http://www.w3.org/2000/svg" xmlns:xlink="http://www.w3.org/1999/xlink" xmlns:inkscape="http://www.inkscape.org/namespaces/inkscape" version="1.1" width="1440" height="1440" viewBox="0 0 1440 1440">
<g inkscape:groupmode="layer" inkscape:label="Layer 1">
<path transform="matrix(1,0,0,-1,0,1440)" d="M0 1440H1440V0H0Z" fill="#ffffff" fillRule="evenodd"/>
<path transform="matrix(3.34996,0,0,-3.36385,0,1440)" strokeWidth="4.0853" strokeLinecap="butt" strokeMiterlimit="22.925585" strokeLinejoin="miter" fill="none" stroke="#313d6d" d="M213.9299 354.0404V354.0404C267.9094 354.0404 312.0746 310.0575 312.0746 256.3007V171.7795C312.0746 118.0227 267.9094 74.0398 213.9299 74.0398 159.95 74.0398 115.7848 118.0227 115.7848 171.7795V256.3007C115.7848 310.0575 159.95 354.0404 213.9299 354.0404Z"/>
<path transform="matrix(3.18343,0,0,-3.18221,0,1440)" strokeWidth="1.0797" strokeLinecap="butt" strokeMiterlimit="22.925585" strokeLinejoin="miter" fill="none" stroke="#313d6d" d="M225.1208 366.258V366.258C277.9988 366.258 321.2626 322.9775 321.2626 270.0794V182.4364C321.2626 129.5379 277.9988 86.2574 225.1208 86.2574 172.2427 86.2574 128.9789 129.5379 128.9789 182.4364V270.0794C128.9789 322.9775 172.2427 366.258 225.1208 366.258Z"/>
<path transform="matrix(0,2.17757,2.1891,0,0,1440)" strokeWidth="1.5695" strokeLinecap="butt" strokeMiterlimit="22.925585" strokeLinejoin="miter" fill="none" stroke="#313d6d" d="M-489.7346 327.3758V327.3758C-489.7346 379.1962-447.1115 421.5949-395.0169 421.5949H-266.2699C-214.1753 421.5949-171.5522 379.1962-171.5522 327.3758-171.5522 275.5553-214.1753 233.1567-266.2699 233.1567H-395.0169C-447.1115 233.1567-489.7346 275.5553-489.7346 327.3758Z"/>
<path transform="matrix(1,0,0,-1,0,1440)" d="M716.6568 1047.4773V1047.4773C823.8903 1047.4773 911.6263 959.7416 911.6263 852.5078V587.4917C911.6263 480.2579 823.8903 392.5222 716.6568 392.5222 609.4233 392.5222 521.6873 480.2579 521.6873 587.4917V852.5078C521.6873 959.7416 609.4233 1047.4773 716.6568 1047.4773" fill="#313d6d" fillRule="evenodd"/>
<path transform="matrix(1,0,0,-1,0,1440)" d="M239.29 730.0434H1200.7254V543.6488H239.29Z" fill="#ffffff" fillRule="evenodd"/>
<path transform="matrix(3.4356,0,0,-3.4356,0,1440)" strokeWidth="6.0001" strokeLinecap="butt" strokeMiterlimit="22.925585" strokeLinejoin="miter" fill="none" stroke="#313d6d" d="M69.6501 212.4938H349.4954"/>
<path transform="matrix(3.4356,0,0,-3.4356,0,1440)" strokeWidth="6.0001" strokeLinecap="butt" strokeMiterlimit="22.925585" strokeLinejoin="miter" fill="none" stroke="#313d6d" d="M69.6501 158.2401H349.4954"/>
<path transform="matrix(1,0,0,-1,0,1440)" d="M623.1756 898.2893 557.5711 778.142C557.5711 778.142 546.802 764.5623 565.7193 762.3224 584.6369 760.0825 621.7245 757.0956 621.7245 757.0956L701.6366 867.2939 664.5243 897.4848V941.0859L669.3508 943.6598V950.0953H618.8312V945.2687L623.1756 941.8904Z" fill="#3f67a2" fillRule="evenodd"/>
<path transform="matrix(1,0,0,-1,0,1440)" d="M612.3317 833.5318C615.5524 833.5318 618.1631 830.9208 618.1631 827.7004 618.1631 824.4797 615.5524 821.8687 612.3317 821.8687 609.1112 821.8687 606.5002 824.4797 606.5002 827.7004 606.5002 830.9208 609.1112 833.5318 612.3317 833.5318" fill="#153e76" fillRule="evenodd"/>
<path transform="matrix(1,0,0,-1,0,1440)" d="M625.7642 810.9252C628.9849 810.9252 631.5959 808.3145 631.5959 805.0938 631.5959 801.8734 628.9849 799.2624 625.7642 799.2624 622.5437 799.2624 619.9328 801.8734 619.9328 805.0938 619.9328 808.3145 622.5437 810.9252 625.7642 810.9252" fill="#153e76" fillRule="evenodd"/>
<path transform="matrix(1,0,0,-1,0,1440)" d="M652.3245 841.8974C655.5453 841.8974 658.1563 839.2864 658.1563 836.0657 658.1563 832.8453 655.5453 830.2343 652.3245 830.2343 649.1041 830.2343 646.4931 832.8453 646.4931 836.0657 646.4931 839.2864 649.1041 841.8974 652.3245 841.8974" fill="#153e76" fillRule="evenodd"/>
<path transform="matrix(1,0,0,-1,0,1440)" d="M818.4036 898.2893 884.0083 778.142C884.0083 778.142 894.7772 764.5623 875.8599 762.3224 856.9426 760.0825 819.8546 757.0956 819.8546 757.0956L739.9426 867.2939 777.0549 897.4848V941.0859L772.2283 943.6598V950.0953H822.748V945.2687L818.4036 941.8904Z" fill="#3f67a2" fillRule="evenodd"/>
<path transform="matrix(1,0,0,-1,0,1440)" d="M829.2475 833.5318C826.0271 833.5318 823.4161 830.9208 823.4161 827.7004 823.4161 824.4797 826.0271 821.8687 829.2475 821.8687 832.4683 821.8687 835.079 824.4797 835.079 827.7004 835.079 830.9208 832.4683 833.5318 829.2475 833.5318" fill="#153e76" fillRule="evenodd"/>
<path transform="matrix(1,0,0,-1,0,1440)" d="M815.815 810.9252C812.5943 810.9252 809.9836 808.3145 809.9836 805.0938 809.9836 801.8734 812.5943 799.2624 815.815 799.2624 819.0354 799.2624 821.6464 801.8734 821.6464 805.0938 821.6464 808.3145 819.0354 810.9252 815.815 810.9252" fill="#153e76" fillRule="evenodd"/>
<path transform="matrix(1,0,0,-1,0,1440)" d="M789.2546 841.8974C786.0339 841.8974 783.4232 839.2864 783.4232 836.0657 783.4232 832.8453 786.0339 830.2343 789.2546 830.2343 792.4751 830.2343 795.0861 832.8453 795.0861 836.0657 795.0861 839.2864 792.4751 841.8974 789.2546 841.8974" fill="#153e76" fillRule="evenodd"/>
<path transform="matrix(1,0,0,-1,0,1440)" d="M694.4193 966.8293H745.4217V961.9688L741.9781 959.98V906.1688L830.9089 751.5105C830.9089 751.5105 854.9762 730.0434 719.5938 730.0434 584.2111 730.0434 609.2816 752.8476 609.2816 752.8476L696.2355 902.7213 698.1656 957.9475 694.4289 960.3646Z" fill="#ffffff" fillRule="evenodd"/>
<path transform="matrix(1,0,0,-1,0,1440)" d="M768.2006 860.5655 830.9089 751.5105C830.9089 751.5105 854.9762 730.0434 719.5938 730.0434 584.2111 730.0434 609.2816 752.8476 609.2816 752.8476L671.1389 859.4649C671.1389 859.4649 684.178 861.3153 696.3883 857.5347 708.5988 853.7542 719.066 852.3011 729.5329 852.3011 740.0001 852.3011 753.6645 850.8472 756.8626 854.0453 760.0609 857.2436 768.2006 860.5655 768.2006 860.5655" fill="#7bc3fd" fillRule="evenodd"/>
<path transform="matrix(3.4356,0,0,-3.4356,0,1440)" strokeWidth=".5" strokeLinecap="butt" strokeMiterlimit="22.925585" strokeLinejoin="miter" fill="none" stroke="#313d6d" d="M203.0185 275.9122H205.9163"/>
<path transform="matrix(3.4356,0,0,-3.4356,0,1440)" strokeWidth=".5" strokeLinecap="butt" strokeMiterlimit="22.925585" strokeLinejoin="miter" fill="none" stroke="#313d6d" d="M202.794 272.9903H205.6918"/>
<path transform="matrix(3.4356,0,0,-3.4356,0,1440)" strokeWidth=".5" strokeLinecap="butt" strokeMiterlimit="22.925585" strokeLinejoin="miter" fill="none" stroke="#313d6d" d="M202.794 270.0677H205.6918"/>
<path transform="matrix(3.4356,0,0,-3.4356,0,1440)" strokeWidth=".5" strokeLinecap="butt" strokeMiterlimit="22.925585" strokeLinejoin="miter" fill="none" stroke="#313d6d" d="M202.794 267.1458H205.6918"/>
<path transform="matrix(1,0,0,-1,0,1440)" d="M759.1493 855.8714C759.1805 855.8918 776.793 822.9039 783.7027 813.9637 790.6113 805.0238 816.2745 768.3661 799.8239 756.7441 783.3725 745.122 755.4067 746.3129 743.2333 742.4391 731.0611 738.5649 713.6209 737.373 713.6209 737.373 656.0427 737.6709 628.0773 743.0349 628.0773 743.0349L690.6532 858.9246C692.5552 858.5787 694.4825 858.1249 696.3883 857.5347 708.5988 853.7553 719.066 852.3011 729.5329 852.3011 740.0001 852.3011 753.6645 850.8472 756.8626 854.0453 757.4675 854.6502 758.2496 855.2599 759.1493 855.8714" fill="#21abf6" fillRule="evenodd"/>
<path transform="matrix(3.4356,0,0,-3.4356,0,1440)" strokeWidth=".5" strokeLinecap="butt" strokeMiterlimit="22.925585" strokeLinejoin="miter" fill="none" stroke="#313d6d" d="M202.794 264.2233H205.6918"/>
<path transform="matrix(3.4356,0,0,-3.4356,0,1440)" strokeWidth=".8731" strokeLinecap="butt" strokeMiterlimit="22.925585" strokeLinejoin="miter" fill="none" stroke="#232e5c" d="M200.4574 226.7008C205.9373 240.4318 211.7543 246.9178 217.4335 244.7229 221.9258 241.6963 218.9262 233.8092 208.4349 221.0627 206.4311 218.7978 202.7843 218.2394 201.8974 219.8631"/>
<path transform="matrix(1,0,0,-1,0,1440)" d="M690.1021 770.578C694.5313 770.578 698.1208 766.9882 698.1208 762.5591 698.1208 758.13 694.5313 754.5402 690.1021 754.5402 685.6727 754.5402 682.0832 758.13 682.0832 762.5591 682.0832 766.9882 685.6727 770.578 690.1021 770.578" fill="#232e5c" fillRule="evenodd"/>
<path transform="matrix(-1.84832,-2.89604,-2.89604,1.84832,0,1440)" strokeWidth=".8731" strokeLinecap="butt" strokeMiterlimit="22.925585" strokeLinejoin="miter" fill="none" stroke="#232e5c" d="M74.874-305.6505C80.354-291.9195 85.9334-286.151 91.6126-288.3455 96.105-291.3724 93.1054-299.2592 82.614-312.006 80.6102-314.2709 76.9635-314.8294 76.0765-313.2057"/>
<path transform="matrix(1,0,0,-1,0,1440)" d="M755.5173 788.0559C753.1345 791.7894 754.2292 796.7466 757.9627 799.1294 761.6962 801.5122 766.6534 800.4175 769.0363 796.684 771.4191 792.9505 770.3243 787.9932 766.5908 785.6104 762.8573 783.2276 757.9001 784.3224 755.5173 788.0559" fill="#232e5c" fillRule="evenodd"/>
<path transform="matrix(-1.91496,2.85241,2.85241,1.91496,0,1440)" strokeWidth=".8731" strokeLinecap="butt" strokeMiterlimit="22.925585" strokeLinejoin="miter" fill="none" stroke="#232e5c" d="M-318.1365 38.7411C-312.6566 52.4721-306.7489 59.0304-301.07 56.8358-296.5774 53.8089-299.577 45.9221-310.0683 33.1753-312.0721 30.9104-315.7189 30.3523-316.6055 31.9757"/>
<path transform="matrix(1,0,0,-1,0,1440)" d="M712.1015 836.3106C709.6326 832.6332 704.6515 831.6539 700.9741 834.1226 697.2968 836.5912 696.3174 841.5726 698.7861 845.25 701.2548 848.9271 706.2361 849.9067 709.9135 847.438 713.5906 844.969 714.5702 839.988 712.1015 836.3106" fill="#232e5c" fillRule="evenodd"/>
<path transform="matrix(1,0,0,-1,0,1440)" d="M719.5538 807.4497C725.7487 807.4497 730.7708 802.4272 730.7708 796.2327 730.7708 790.0379 725.7487 785.0154 719.5538 785.0154 713.359 785.0154 708.3369 790.0379 708.3369 796.2327 708.3369 802.4272 713.359 807.4497 719.5538 807.4497" fill="#232e5c" fillRule="evenodd"/>
<text fill="#313d6d" xml:space="preserve" transform="matrix(1 0 -0 1 0 1440)" fontSize="79.565" fontFamily="BerlinSansFB"><tspan y="-608.1786" x="54.284 112.975299 141.24579 199.93709 267.06208 323.65809 374.23359 402.5041 459.63179 508.28089 564.9829 617.22946 663.8004 716.04666 777.9201 834.62216 891.21817 948.1867 996.83596 1043.4066 1095.6531 1152.3551 1211.0462 1239.3169 1295.9129 1348.159">VIVOCLIN RESEARCH SERVICES</tspan></text>
<text fill="#153e76" xml:space="preserve" transform="matrix(.99963268 .027100888 -.027100888 .99963268 0 1440)" fontSize="32.63893" fontFamily="BerlinSansFB"><tspan y="-1143.442" x="675.694">H</tspan></text>
<text fill="#153e76" xml:space="preserve" transform="matrix(.99707749 .07639827 -.07639827 .99707749 0 1440)" fontSize="32.640737" fontFamily="BerlinSansFB"><tspan y="-1176.4038" x="648.7193">.</tspan></text>
<text fill="#153e76" xml:space="preserve" transform="matrix(.9912358 .13210477 -.13210477 .9912358 0 1440)" fontSize="32.63882" fontFamily="BerlinSansFB"><tspan y="-1211.1593" x="588.8717"> </tspan></text>
<text fill="#153e76" xml:space="preserve" transform="matrix(.99707749 -.07639827 .07639827 .99707749 0 1440)" fontSize="32.640737" fontFamily="BerlinSansFB"><tspan y="-1066.8546" x="763.9225">C</tspan></text>
<text fill="#153e76" xml:space="preserve" transform="matrix(.97451916 .2243044 -.2243044 .97451916 0 1440)" fontSize="32.63936" fontFamily="BerlinSansFB"><tspan y="-1263.1825" x="495.67268">E</tspan></text>
<text fill="#153e76" xml:space="preserve" transform="matrix(.9856157 -.1690027 .1690027 .9856157 0 1440)" fontSize="32.63948" fontFamily="BerlinSansFB"><tspan y="-990.83468" x="833.9934">R</tspan></text>
<text fill="#153e76" xml:space="preserve" transform="matrix(.9454039 .32590134 -.32590134 .9454039 0 1440)" fontSize="32.639867" fontFamily="BerlinSansFB"><tspan y="-1310.6467" x="384.01698">N</tspan></text>
<text fill="#153e76" xml:space="preserve" transform="matrix(.94949015 -.31379674 .31379674 .94949015 0 1440)" fontSize="32.64034" fontFamily="BerlinSansFB"><tspan y="-855.82876" x="943.6539">A</tspan></text>
<text fill="#153e76" xml:space="preserve" transform="matrix(.91059586 .41329814 -.41329814 .91059586 0 1440)" fontSize="32.64015" fontFamily="BerlinSansFB"><tspan y="-1343.58" x="289.4712">H</tspan></text>
<text fill="#153e76" xml:space="preserve" transform="matrix(.90885 -.417123 .417123 .90885 0 1440)" fontSize="32.638204" fontFamily="BerlinSansFB"><tspan y="-746.8616" x="1008.0138">E</tspan></text>
<text fill="#153e76" xml:space="preserve" transform="matrix(.84097048 .541081 -.541081 .84097048 0 1440)" fontSize="32.641149" fontFamily="BerlinSansFB"><tspan y="-1375.1732" x="121.45184">A</tspan></text>
<text fill="#153e76" xml:space="preserve" transform="matrix(.8866776 -.4623883 .4623883 .8866776 0 1440)" fontSize="32.640825" fontFamily="BerlinSansFB"><tspan y="-695.46719" x="1022.52517">S</tspan></text>
<text fill="#153e76" xml:space="preserve" transform="matrix(.8439455 -.5364289 .5364289 .8439455 0 1440)" fontSize="32.63824" fontFamily="BerlinSansFB"><tspan y="-605.77267" x="1053.5669">E</tspan></text>
<text fill="#153e76" xml:space="preserve" transform="matrix(.78649529 .6175963 -.6175963 .78649529 0 1440)" fontSize="32.640195" fontFamily="BerlinSansFB"><tspan y="-1383.1631" x="20.12262">N</tspan></text>
<text fill="#153e76" xml:space="preserve" transform="matrix(.78921756 -.6141136 .6141136 .78921756 0 1440)" fontSize="32.639276" fontFamily="BerlinSansFB"><tspan y="-502.89323" x="1079.915">R</tspan></text>
<text fill="#153e76" xml:space="preserve" transform="matrix(.73060289 .6828027 -.6828027 .73060289 0 1440)" fontSize="32.63987" fontFamily="BerlinSansFB"><tspan y="-1381.9712" x="-68.092838">C</tspan></text>
<text fill="#153e76" xml:space="preserve" transform="matrix(.7309422 -.6824394 .6824394 .7309422 0 1440)" fontSize="32.638116" fontFamily="BerlinSansFB"><tspan y="-403.99369" x="1097.7088"> </tspan></text>
<text fill="#153e76" xml:space="preserve" transform="matrix(.6530286 .75733318 -.75733318 .6530286 0 1440)" fontSize="32.63857" fontFamily="BerlinSansFB"><tspan y="-1368.9182" x="-190.06793">I</tspan></text>
<text fill="#153e76" xml:space="preserve" transform="matrix(.6537839 -.7566813 .7566813 .6537839 0 1440)" fontSize="32.640806" fontFamily="BerlinSansFB"><tspan y="-284.62467" x="1112.7703">G</tspan></text>
<text fill="#153e76" xml:space="preserve" transform="matrix(.6189956 .7853944 -.7853944 .6189956 0 1440)" fontSize="32.640233" fontFamily="BerlinSansFB"><tspan y="-1359.7241" x="-235.71143">N</tspan></text>
<text fill="#153e76" xml:space="preserve" transform="matrix(.576318 -.8172255 .8172255 .576318 0 1440)" fontSize="32.63898" fontFamily="BerlinSansFB"><tspan y="-174.78379" x="1104.8167">N</tspan></text>
<text fill="#153e76" xml:space="preserve" transform="matrix(.49460898 .8691157 -.8691157 .49460898 0 1440)" fontSize="32.63941" fontFamily="BerlinSansFB"><tspan y="-1313.1145" x="-406.34187">G</tspan></text>
<text fill="#153e76" xml:space="preserve" transform="matrix(.49012829 -.8716503 .8716503 .49012829 0 1440)" fontSize="32.638116" fontFamily="BerlinSansFB"><tspan y="-61.81656" x="1102.4078">I</tspan></text>
<text fill="#153e76" xml:space="preserve" transform="matrix(.4623883 .8866776 -.8866776 .4623883 0 1440)" fontSize="32.640825" fontFamily="BerlinSansFB"><tspan y="-1298.1077" x="-432.11735"> </tspan></text>
<text fill="#153e76" xml:space="preserve" transform="matrix(.4623883 -.8866776 .8866776 .4623883 0 1440)" fontSize="32.640825" fontFamily="BerlinSansFB"><tspan y="-27.323548" x="1080.0864">T</tspan></text>
<text fill="#153e76" xml:space="preserve" transform="matrix(.37480197 .9271049 -.9271049 .37480197 0 1440)" fontSize="32.639829" fontFamily="BerlinSansFB"><tspan y="-1252.2422" x="-532.27249">L</tspan></text>
<text fill="#153e76" xml:space="preserve" transform="matrix(.36609168 -.93057879 .93057879 .36609168 0 1440)" fontSize="32.640745" fontFamily="BerlinSansFB"><tspan y="86.49585" x="1048.6762">A</tspan></text>
<text fill="#153e76" xml:space="preserve" transform="matrix(.27850969 .9604334 -.9604334 .27850969 0 1440)" fontSize="32.638864" fontFamily="BerlinSansFB"><tspan y="-1193.4984" x="-633.2756">I</tspan></text>
<text fill="#153e76" xml:space="preserve" transform="matrix(.22650247 .9740106 -.9740106 .22650247 0 1440)" fontSize="32.639646" fontFamily="BerlinSansFB"><tspan y="-1158.6455" x="-681.87">V</tspan></text>
<text fill="#153e76" xml:space="preserve" transform="matrix(.27860195 -.9604067 .9604067 .27860195 0 1440)" fontSize="32.63977" fontFamily="BerlinSansFB"><tspan y="183.00412" x="1009.03469">V</tspan></text>
<text fill="#153e76" xml:space="preserve" transform="matrix(.133395 .99106296 -.99106296 .133395 0 1440)" fontSize="32.64122" fontFamily="BerlinSansFB"><tspan y="-1090.6509" x="-761.4641">I</tspan></text>
<text fill="#153e76" xml:space="preserve" transform="matrix(.17070389 -.9853224 .9853224 .17070389 0 1440)" fontSize="32.639257" fontFamily="BerlinSansFB"><tspan y="293.4051" x="958.0925">E</tspan></text>
<text fill="#153e76" xml:space="preserve" transform="matrix(.07639827 .99707749 -.99707749 .07639827 0 1440)" fontSize="32.640737" fontFamily="BerlinSansFB"><tspan y="-1046.3338" x="-807.88137">N</tspan></text>
<text fill="#153e76" xml:space="preserve" transform="matrix(.07649768 -.9970698 .9970698 .07649768 0 1440)" fontSize="32.640989" fontFamily="BerlinSansFB"><tspan y="382.52928" x="902.02316">L</tspan></text>
<text fill="#153e76" xml:space="preserve" transform="matrix(-.00049999999 .9999999 -.9999999 -.00049999999 0 1440)" fontSize="32.640005" fontFamily="BerlinSansFB"><tspan y="-982.40756" x="-855.92068">G</tspan></text>
<text fill="#153e76" xml:space="preserve" transform="matrix(0 -1 1 0 0 1440)" fontSize="32.64" fontFamily="BerlinSansFB"><tspan y="450.4255" x="845.6374">E</tspan></text>
<path transform="matrix(1,0,0,-1,0,1440)" d="M700.7494 498.5478C709.598 498.5478 716.7705 491.3753 716.7705 482.5267 716.7705 473.6781 709.598 466.5056 700.7494 466.5056 691.9007 466.5056 684.7282 473.6781 684.7282 482.5267 684.7282 491.3753 691.9007 498.5478 700.7494 498.5478" fill="#7bc3fd" fillRule="evenodd"/>
<path transform="matrix(1,0,0,-1,0,1440)" d="M730.768 509.9284C735.529 509.9284 739.3887 506.069 739.3887 501.3079 739.3887 496.5466 735.529 492.6872 730.768 492.6872 726.0066 492.6872 722.1472 496.5466 722.1472 501.3079 722.1472 506.069 726.0066 509.9284 730.768 509.9284" fill="#7bc3fd" fillRule="evenodd"/>
<path transform="matrix(1,0,0,-1,0,1440)" d="M700.4942 527.6276C705.2553 527.6276 709.115 523.7683 709.115 519.0069 709.115 514.2455 705.2553 510.3862 700.4942 510.3862 695.7329 510.3862 691.8735 514.2455 691.8735 519.0069 691.8735 523.7683 695.7329 527.6276 700.4942 527.6276" fill="#7bc3fd" fillRule="evenodd"/>
<path transform="matrix(1,0,0,-1,0,1440)" d="M670.1114 509.3977C674.8727 509.3977 678.7321 505.5384 678.7321 500.777 678.7321 496.0157 674.8727 492.1563 670.1114 492.1563 665.35 492.1563 661.4906 496.0157 661.4906 500.777 661.4906 505.5384 665.35 509.3977 670.1114 509.3977" fill="#7bc3fd" fillRule="evenodd"/>
<path transform="matrix(1,0,0,-1,0,1440)" d="M662.7898 471.5385C669.4906 471.5385 674.9223 466.107 674.9223 459.4062 674.9223 452.7051 669.4906 447.2736 662.7898 447.2736 656.0889 447.2736 650.6575 452.7051 650.6575 459.4062 650.6575 466.107 656.0889 471.5385 662.7898 471.5385" fill="#7bc3fd" fillRule="evenodd"/>
<path transform="matrix(1,0,0,-1,0,1440)" d="M705.3197 452.0174C712.0205 452.0174 717.4522 446.5857 717.4522 439.8849 717.4522 433.184 712.0205 427.7523 705.3197 427.7523 698.6188 427.7523 693.1871 433.184 693.1871 439.8849 693.1871 446.5857 698.6188 452.0174 705.3197 452.0174" fill="#7bc3fd" fillRule="evenodd"/>
<path transform="matrix(1,0,0,-1,0,1440)" d="M737.1156 472.1083C743.8164 472.1083 749.2482 466.6765 749.2482 459.9757 749.2482 453.2749 743.8164 447.8434 737.1156 447.8434 730.4148 447.8434 724.983 453.2749 724.983 459.9757 724.983 466.6765 730.4148 472.1083 737.1156 472.1083" fill="#7bc3fd" fillRule="evenodd"/>
<path transform="matrix(1,0,0,-1,0,1440)" d="M771.6413 449.8591C777.4733 449.8591 782.2009 445.1318 782.2009 439.2995 782.2009 433.4675 777.4733 428.7399 771.6413 428.7399 765.809 428.7399 761.0814 433.4675 761.0814 439.2995 761.0814 445.1318 765.809 449.8591 771.6413 449.8591" fill="#7bc3fd" fillRule="evenodd"/>
<path transform="matrix(1,0,0,-1,0,1440)" d="M774.0349 490.7704C778.7962 490.7704 782.6556 486.9111 782.6556 482.1497 782.6556 477.3886 778.7962 473.5293 774.0349 473.5293 769.2738 473.5293 765.4141 477.3886 765.4141 482.1497 765.4141 486.9111 769.2738 490.7704 774.0349 490.7704" fill="#7bc3fd" fillRule="evenodd"/>
<path transform="matrix(1,0,0,-1,0,1440)" d="M700.2184 496.3558V513.343H701.9365V496.3558Z" fill="#7bc3fd"/>
<path transform="matrix(1,0,0,-1,0,1440)" d="M711.9643 489.6643 724.9334 498.4155 725.8938 496.9936 712.9247 488.2425Z" fill="#7bc3fd"/>
<path transform="matrix(1,0,0,-1,0,1440)" d="M675.896 496.9517 688.6568 489.4781 687.7919 488.0018 675.0315 495.4754Z" fill="#7bc3fd"/>
<path transform="matrix(1,0,0,-1,0,1440)" d="M688.9802 474.4534 670.8379 463.21 669.9379 464.667 688.0802 475.9104Z" fill="#7bc3fd"/>
<path transform="matrix(1,0,0,-1,0,1440)" d="M713.4446 445.1828 728.1558 455.7101 729.1494 454.3138 714.4381 443.7862Z" fill="#7bc3fd"/>
<path transform="matrix(1,0,0,-1,0,1440)" d="M712.6773 477.7149 729.1426 466.2437 728.1626 464.8334 711.6976 476.3047Z" fill="#7bc3fd"/>
<path transform="matrix(1,0,0,-1,0,1440)" d="M745.037 457.4874 764.8758 444.8018 763.9563 443.3587 744.1177 456.0443Z" fill="#7bc3fd"/>
<path transform="matrix(1,0,0,-1,0,1440)" d="M744.931 464.6435 768.1431 479.2068 769.0567 477.7577 745.8443 463.1944Z" fill="#7bc3fd"/>
</g>
</svg>
