<svg data-v-0dd9719b="" version="1.0" xmlns="http://www.w3.org/2000/svg" xmlns:xlink="http://www.w3.org/1999/xlink" width="100%" height="100%" viewBox="0 0 340.000000 250.000000" preserveAspectRatio="xMidYMid meet" color-interpolation-filters="sRGB" style="margin: auto;"> <rect data-v-0dd9719b="" x="0" y="0" width="100%" height="100%" fill="#ffffff" fill-opacity="1" class="background"></rect> <rect data-v-0dd9719b="" x="0" y="0" width="100%" height="100%" fill="url(#watermark)" fill-opacity="1" class="watermarklayer"></rect> <g data-v-0dd9719b="" fill="#0a5694" class="iconlinesvg-g iconlinesvg" transform="translate(76.57826232910156,100.59557342529297)"><g class="tp-name" transform="translate(0,0)"><g transform="translate(0, 0)"><g><g class="imagesvg"><g><rect fill="#0a5694" fill-opacity="0" stroke-width="2" x="0" y="0" width="39.4744497264396" height="34.65285191147673" class="image-rect"></rect> <svg x="0" y="0" width="39.4744497264396" height="34.65285191147673" filtersec="colorsb3255804645" class="image-svg-svg primary" style="overflow: visible;"><svg xmlns="http://www.w3.org/2000/svg" viewBox="0 0 144.8300018310547 127.13999938964844"><title>资源 19</title><path fill="#171e60" d="M0 0h50.38l47.37 83.06-25.19 44.08L0 0z"></path><path fill="#0a5694" d="M144.83 0H94.45L47.38 83.06l25.18 44.08L144.83 0z"></path><path fill="#171e60" d="M72.56 38.69l25.19 44.37-25.19 44.08-25.18-44.08 25.18-44.37z"></path></svg></svg> <!----></g></g></g></g><g transform="translate(41, 1.435939837006881)"><g data-gra="path-name" fill="#0a5694" transform="scale(1)"><path d="M10.43-22.38L10.43 0L2.71 0L2.71-22.38L10.43-22.38ZM2.51-27.95L2.51-27.95Q2.51-29.69 3.48-30.54Q4.44-31.39 6.60-31.39L6.60-31.39Q8.75-31.39 9.74-30.52Q10.73-29.65 10.73-27.95L10.73-27.95Q10.73-24.55 6.60-24.55L6.60-24.55Q2.51-24.55 2.51-27.95Z" transform="translate(-2.508504334467245, 31.385932184790963)"></path></g></g><g transform="translate(53, 1.435939837006881)"><g data-gra="path-name" fill="#0a5694" transform="scale(1)"><path d="M16.18 0L8.53 0L0-22.38L8.06-22.38L11.85-9.15Q11.87-9.05 11.93-8.81Q11.99-8.57 12.05-8.25Q12.11-7.92 12.16-7.56Q12.21-7.19 12.21-6.87L12.21-6.87L12.35-6.87Q12.35-7.90 12.70-9.11L12.70-9.11L16.67-22.38L24.71-22.38L16.18 0Z" transform="translate(0, 31.385932184790963)"></path></g></g><g transform="translate(81, 1.435939837006881)"><g data-gra="path-name" fill="#0a5694" transform="scale(1)"><path d="M24.04-11.24L24.04-11.24Q24.04-5.75 21.09-2.68Q18.13 0.40 12.82 0.40L12.82 0.40Q7.72 0.40 4.71-2.75Q1.70-5.89 1.70-11.24L1.70-11.24Q1.70-16.71 4.65-19.74Q7.60-22.77 12.94-22.77L12.94-22.77Q16.24-22.77 18.76-21.37Q21.29-19.97 22.67-17.35Q24.04-14.73 24.04-11.24ZM9.54-11.24L9.54-11.24Q9.54-8.36 10.31-6.84Q11.08-5.33 12.90-5.33L12.90-5.33Q14.70-5.33 15.44-6.84Q16.18-8.36 16.18-11.24L16.18-11.24Q16.18-14.10 15.43-15.56Q14.68-17.03 12.86-17.03L12.86-17.03Q11.08-17.03 10.31-15.57Q9.54-14.12 9.54-11.24Z" transform="translate(-1.6986722264896301, 31.385932184790963)"></path></g></g><g transform="translate(107, 1.435939837006881)"><g data-gra="path-name" fill="#0a5694" transform="scale(1)"><path d="M12.86 0.40L12.86 0.40Q7.37 0.40 4.53-2.57Q1.70-5.53 1.70-11.08L1.70-11.08Q1.70-16.65 4.76-19.71Q7.82-22.77 13.47-22.77L13.47-22.77Q17.36-22.77 20.80-21.08L20.80-21.08L18.53-15.37Q17.12-15.98 15.94-16.34Q14.75-16.71 13.47-16.71L13.47-16.71Q11.59-16.71 10.57-15.25Q9.54-13.79 9.54-11.12L9.54-11.12Q9.54-5.75 13.51-5.75L13.51-5.75Q16.91-5.75 20.03-7.72L20.03-7.72L20.03-1.58Q17.05 0.40 12.86 0.40Z" transform="translate(-1.6986722264896301, 31.385932184790963)"></path></g></g><g transform="translate(130, 1.435939837006881)"><g data-gra="path-name" fill="#0a5694" transform="scale(1)"><path d="M10.43-22.38L10.43 0L2.71 0L2.71-22.38L10.43-22.38ZM2.51-27.95L2.51-27.95Q2.51-29.69 3.48-30.54Q4.44-31.39 6.60-31.39L6.60-31.39Q8.75-31.39 9.74-30.52Q10.73-29.65 10.73-27.95L10.73-27.95Q10.73-24.55 6.60-24.55L6.60-24.55Q2.51-24.55 2.51-27.95Z" transform="translate(-2.508504334467245, 31.385932184790963)"></path></g></g><g transform="translate(142, 1.435939837006881)"><g data-gra="path-name" fill="#0a5694" transform="scale(1)"><path d="M10.39-30.73L10.39 0L2.67 0L2.67-30.73L10.39-30.73Z" transform="translate(-2.6665203555360475, 31.385932184790963)"></path></g></g><g transform="translate(153, 1.435939837006881)"><g data-gra="path-name" fill="#0a5694" transform="scale(1)"><path d="M10.43-22.38L10.43 0L2.71 0L2.71-22.38L10.43-22.38ZM2.51-27.95L2.51-27.95Q2.51-29.69 3.48-30.54Q4.44-31.39 6.60-31.39L6.60-31.39Q8.75-31.39 9.74-30.52Q10.73-29.65 10.73-27.95L10.73-27.95Q10.73-24.55 6.60-24.55L6.60-24.55Q2.51-24.55 2.51-27.95Z" transform="translate(-2.508504334467245, 31.385932184790963)"></path></g></g><g transform="translate(165, 1.435939837006881)"><g data-gra="path-name" fill="#0a5694" transform="scale(1)"><path d="M24.51 0L16.79 0L16.79-12.21Q16.79-14.44 16.15-15.57Q15.51-16.71 14.08-16.71L14.08-16.71Q12.13-16.71 11.26-15.15Q10.39-13.59 10.39-9.80L10.39-9.80L10.39 0L2.67 0L2.67-22.38L8.49-22.38L9.46-19.61L9.92-19.61Q10.90-21.19 12.65-21.98Q14.40-22.77 16.67-22.77L16.67-22.77Q20.38-22.77 22.45-20.62Q24.51-18.47 24.51-14.56L24.51-14.56L24.51 0Z" transform="translate(-2.6665203555360475, 31.385932184790963)"></path></g></g></g> <g data-gra="path-slogan" fill-rule="" class="tp-slogan" fill="#0a5694" transform="translate(67.4017391204834,40.65285110473633)"><!----> <!----> <g transform="scale(1, 1)"><g transform="scale(1)"><path d="M2.08-4.14L2.08-7.07L3.40-7.07C4.01-7.07 4.48-6.96 4.81-6.76C5.14-6.55 5.30-6.18 5.30-5.66C5.30-5.15 5.14-4.77 4.81-4.52C4.48-4.27 4.01-4.14 3.40-4.14ZM5.40 0L6.53 0L4.54-3.43C5.07-3.57 5.50-3.82 5.82-4.19C6.14-4.56 6.30-5.05 6.30-5.66C6.30-6.07 6.23-6.42 6.10-6.70C5.96-6.98 5.77-7.20 5.53-7.38C5.28-7.56 4.99-7.68 4.65-7.76C4.31-7.83 3.94-7.87 3.54-7.87L1.08-7.87L1.08 0L2.08 0L2.08-3.32L3.50-3.32ZM8.05-7.87L8.05 0L12.71 0L12.71-0.85L9.05-0.85L9.05-3.71L12.04-3.71L12.04-4.56L9.05-4.56L9.05-7.03L12.59-7.03L12.59-7.87ZM14.40-1.72L13.80-1.02C14.14-0.66 14.55-0.38 15.02-0.17C15.50 0.04 16.01 0.14 16.56 0.14C16.98 0.14 17.35 0.09 17.68-0.03C18.00-0.15 18.28-0.31 18.52-0.51C18.75-0.71 18.93-0.95 19.05-1.22C19.17-1.50 19.24-1.79 19.24-2.10C19.24-2.39 19.19-2.64 19.11-2.86C19.03-3.08 18.91-3.27 18.77-3.44C18.62-3.60 18.45-3.75 18.25-3.87C18.05-3.99 17.84-4.10 17.62-4.20L16.50-4.68C16.34-4.74 16.18-4.81 16.03-4.89C15.88-4.97 15.74-5.05 15.61-5.15C15.48-5.25 15.38-5.37 15.31-5.50C15.23-5.63 15.19-5.80 15.19-5.99C15.19-6.35 15.33-6.63 15.59-6.83C15.86-7.04 16.22-7.14 16.66-7.14C17.02-7.14 17.35-7.07 17.65-6.94C17.94-6.81 18.20-6.63 18.44-6.40L18.98-7.04C18.70-7.33 18.36-7.57 17.96-7.75C17.56-7.93 17.13-8.02 16.66-8.02C16.30-8.02 15.97-7.96 15.67-7.86C15.37-7.76 15.11-7.61 14.89-7.42C14.67-7.23 14.49-7.01 14.37-6.76C14.25-6.50 14.18-6.22 14.18-5.93C14.18-5.64 14.23-5.39 14.33-5.17C14.42-4.95 14.55-4.76 14.70-4.60C14.85-4.44 15.02-4.30 15.22-4.19C15.41-4.08 15.60-3.98 15.78-3.90L16.91-3.41C17.09-3.32 17.26-3.24 17.42-3.16C17.58-3.08 17.72-2.99 17.84-2.89C17.95-2.79 18.05-2.67 18.11-2.53C18.18-2.39 18.22-2.22 18.22-2.02C18.22-1.63 18.07-1.32 17.78-1.09C17.50-0.85 17.09-0.73 16.57-0.73C16.16-0.73 15.77-0.82 15.39-1.00C15.01-1.18 14.68-1.42 14.40-1.72ZM20.78-7.87L20.78 0L25.44 0L25.44-0.85L21.78-0.85L21.78-3.71L24.77-3.71L24.77-4.56L21.78-4.56L21.78-7.03L25.32-7.03L25.32-7.87ZM30.46-3.20L28.09-3.20L28.46-4.40C28.61-4.84 28.74-5.28 28.87-5.72C29.00-6.15 29.12-6.60 29.24-7.06L29.29-7.06C29.42-6.60 29.55-6.15 29.68-5.72C29.80-5.28 29.94-4.84 30.08-4.40ZM30.71-2.40L31.45 0L32.52 0L29.86-7.87L28.73-7.87L26.06 0L27.08 0L27.84-2.40ZM34.63-4.14L34.63-7.07L35.95-7.07C36.57-7.07 37.04-6.96 37.37-6.76C37.70-6.55 37.86-6.18 37.86-5.66C37.86-5.15 37.70-4.77 37.37-4.52C37.04-4.27 36.57-4.14 35.95-4.14ZM37.96 0L39.08 0L37.09-3.43C37.63-3.57 38.06-3.82 38.38-4.19C38.70-4.56 38.86-5.05 38.86-5.66C38.86-6.07 38.79-6.42 38.65-6.70C38.52-6.98 38.33-7.20 38.08-7.38C37.84-7.56 37.55-7.68 37.21-7.76C36.87-7.83 36.50-7.87 36.10-7.87L33.64-7.87L33.64 0L34.63 0L34.63-3.32L36.06-3.32ZM40.15-3.94C40.15-3.30 40.24-2.72 40.41-2.21C40.58-1.71 40.82-1.28 41.13-0.93C41.44-0.58 41.80-0.32 42.22-0.13C42.64 0.05 43.10 0.14 43.60 0.14C44.10 0.14 44.55 0.04 44.94-0.16C45.33-0.36 45.68-0.64 46.00-1.00L45.43-1.61C45.18-1.33 44.91-1.11 44.62-0.96C44.34-0.81 44.00-0.73 43.62-0.73C43.24-0.73 42.91-0.81 42.61-0.96C42.31-1.11 42.05-1.33 41.84-1.61C41.64-1.89 41.47-2.23 41.36-2.62C41.24-3.02 41.18-3.46 41.18-3.96C41.18-4.45 41.24-4.89 41.36-5.28C41.48-5.67 41.65-6.01 41.87-6.28C42.08-6.56 42.34-6.77 42.65-6.92C42.95-7.07 43.29-7.14 43.67-7.14C44.00-7.14 44.30-7.07 44.55-6.94C44.80-6.81 45.03-6.63 45.24-6.41L45.80-7.04C45.57-7.30 45.28-7.53 44.92-7.72C44.56-7.92 44.14-8.02 43.66-8.02C43.15-8.02 42.69-7.92 42.26-7.73C41.83-7.55 41.46-7.28 41.15-6.92C40.84-6.57 40.59-6.14 40.42-5.64C40.24-5.14 40.15-4.57 40.15-3.94ZM47.46-7.87L47.46 0L48.46 0L48.46-3.71L52.12-3.71L52.12 0L53.12 0L53.12-7.87L52.12-7.87L52.12-4.57L48.46-4.57L48.46-7.87Z" transform="translate(-1.08, 8.016)"></path></g></g></g></g><defs v-gra="od"></defs></svg>